<svg xmlns="http://www.w3.org/2000/svg"
     width="864" height="216"
     viewBox="0 0 512 128">
  <path fill="#ffffff" stroke="none" stroke-width="1"
        d="M 13.46,4.58
           C 13.46,4.58 8.40,34.73 8.40,34.73
             8.40,34.73 20.99,34.73 20.99,34.73
             22.77,34.73 24.74,34.46 26.42,32.72
             27.85,31.21 28.67,28.99 29.05,26.77
             29.05,26.77 29.30,25.30 29.30,25.30
             29.52,23.94 29.66,22.48 29.48,21.21
             29.29,19.94 28.61,19.25 27.90,18.65
             28.70,18.08 29.32,17.32 29.82,16.25
             30.26,15.28 30.55,14.14 30.72,13.07
             30.72,13.07 30.94,11.79 30.94,11.79
             31.96,5.74 29.14,4.58 25.53,4.58
             25.53,4.58 13.46,4.58 13.46,4.58 Z
           M 15.41,16.54
           C 15.41,16.54 16.55,9.76 16.55,9.76
             16.55,9.76 24.34,9.76 24.34,9.76
             26.13,9.76 27.16,10.32 26.67,13.19
             26.21,15.94 24.94,16.54 23.20,16.54
             23.20,16.54 15.41,16.54 15.41,16.54 Z
           M 13.22,29.55
           C 13.22,29.55 14.56,21.59 14.56,21.59
             14.56,21.59 22.61,21.59 22.61,21.59
             24.59,21.59 25.69,22.37 25.17,25.48
             25.02,26.37 24.78,27.35 24.29,28.15
             23.50,29.37 22.08,29.55 21.13,29.55
             21.13,29.55 13.22,29.55 13.22,29.55 Z
           M 33.20,18.92
           C 33.20,18.92 37.04,18.92 37.04,18.92
             37.50,16.19 38.34,15.99 40.08,15.99
             40.08,15.99 41.75,15.99 41.75,15.99
             42.64,15.99 43.77,16.16 44.07,17.34
             44.26,18.17 44.03,19.23 43.88,20.14
             43.88,20.14 38.86,20.14 38.86,20.14
             34.72,20.14 32.37,20.94 31.25,27.63
             30.94,29.48 30.70,31.79 31.53,33.13
             32.37,34.46 33.92,34.77 35.28,34.77
             35.28,34.77 37.60,34.73 37.60,34.73
             38.38,34.73 39.22,34.66 40.03,34.39
             40.69,34.19 41.23,33.70 41.76,33.01
             41.76,33.01 41.58,34.77 41.58,34.77
             41.58,34.77 45.09,34.77 45.09,34.77
             45.09,34.77 47.48,20.59 47.48,20.59
             47.83,18.52 48.22,16.19 47.75,14.34
             47.04,11.67 44.92,11.27 42.89,11.27
             42.89,11.27 40.82,11.27 40.82,11.27
             39.26,11.27 37.52,11.52 36.01,12.79
             34.20,14.25 33.60,16.43 33.20,18.92 Z
           M 43.10,24.79
           C 43.10,24.79 42.52,28.23 42.52,28.23
             42.24,29.92 40.20,30.06 39.39,30.06
             39.39,30.06 36.96,30.06 36.96,30.06
             36.32,30.06 35.53,30.01 35.08,29.44
             34.73,29.03 34.79,28.28 34.91,27.59
             35.04,26.81 35.31,25.79 35.92,25.37
             36.74,24.79 37.90,24.79 38.74,24.79
             38.74,24.79 43.10,24.79 43.10,24.79 Z
           M 65.02,25.08
           C 65.02,25.08 61.30,25.08 61.30,25.08
             61.30,25.08 61.14,26.03 61.14,26.03
             60.98,26.99 60.74,28.21 60.13,28.90
             59.32,29.81 58.17,29.88 57.32,29.88
             57.32,29.88 55.53,29.88 55.53,29.88
             53.17,29.88 52.80,28.37 53.32,25.23
             53.32,25.23 54.04,20.97 54.04,20.97
             54.58,17.77 55.43,16.12 57.88,16.12
             57.88,16.12 59.56,16.12 59.56,16.12
             60.26,16.12 60.98,16.30 61.56,16.68
             62.38,17.19 62.29,18.65 62.08,19.88
             62.08,19.88 61.92,20.81 61.92,20.81
             61.92,20.81 65.64,20.81 65.64,20.81
             65.64,20.81 65.84,19.63 65.84,19.63
             66.38,16.50 66.53,13.52 64.47,12.16
             63.49,11.52 62.24,11.30 61.07,11.30
             61.07,11.30 58.57,11.30 58.57,11.30
             53.77,11.30 51.55,13.63 50.40,20.52
             50.40,20.52 49.63,25.08 49.63,25.08
             48.47,31.99 49.51,34.79 54.56,34.79
             54.56,34.79 56.93,34.79 56.93,34.79
             58.56,34.79 60.64,34.57 62.21,33.08
             63.85,31.55 64.40,28.79 64.78,26.50
             64.78,26.50 65.02,25.08 65.02,25.08 Z
           M 71.45,4.69
           C 71.45,4.69 66.38,34.84 66.38,34.84
             66.38,34.84 70.10,34.84 70.10,34.84
             70.10,34.84 72.24,22.12 72.24,22.12
             72.24,22.12 76.86,34.84 76.86,34.84
             76.86,34.84 81.71,34.84 81.71,34.84
             81.71,34.84 76.71,21.90 76.71,21.90
             76.71,21.90 85.30,11.30 85.30,11.30
             85.30,11.30 80.43,11.30 80.43,11.30
             80.43,11.30 72.33,21.59 72.33,21.59
             72.33,21.59 75.16,4.69 75.16,4.69
             75.16,4.69 71.45,4.69 71.45,4.69 Z
           M 101.80,12.54
           C 101.42,12.10 101.00,11.74 100.47,11.61
             99.52,11.39 98.56,11.27 97.57,11.27
             97.57,11.27 94.29,11.27 94.29,11.27
             91.17,11.27 88.81,11.92 87.93,17.14
             87.80,17.92 87.71,18.72 87.73,19.43
             87.75,20.43 88.05,21.08 88.53,21.66
             87.45,22.41 86.61,23.23 86.33,24.90
             86.20,25.68 86.30,26.32 86.46,26.99
             85.21,28.10 84.76,29.35 84.45,31.17
             84.11,33.19 84.17,35.08 85.44,35.99
             86.48,36.75 88.82,36.84 90.17,36.84
             90.17,36.84 94.25,36.84 94.25,36.84
             95.54,36.84 97.78,36.75 99.05,35.68
             100.42,34.57 101.01,32.30 101.32,30.44
             101.70,28.17 101.64,26.23 100.21,25.35
             99.08,24.66 96.28,24.77 94.88,24.77
             94.88,24.77 94.13,24.77 94.13,24.77
             93.28,24.77 92.38,24.77 91.54,24.66
             91.11,24.63 90.47,24.52 90.60,23.74
             90.67,23.32 91.04,22.99 91.30,22.74
             91.30,22.74 96.32,22.74 96.32,22.74
             97.55,22.74 98.97,22.61 100.19,21.54
             101.21,20.70 101.65,19.30 101.88,17.90
             101.88,17.90 101.91,17.77 101.91,17.77
             102.02,17.08 102.23,16.56 102.74,16.23
             103.29,15.88 103.91,15.94 104.45,15.94
             104.45,15.94 105.31,10.83 105.31,10.83
             105.31,10.83 104.10,10.83 104.10,10.83
             103.07,10.83 102.49,11.21 101.80,12.54 Z
           M 93.48,15.54
           C 93.48,15.54 96.94,15.54 96.94,15.54
             97.75,15.54 98.75,15.61 98.50,17.12
             98.26,18.54 97.18,18.74 96.41,18.74
             96.41,18.74 93.05,18.74 93.05,18.74
             92.23,18.74 91.31,18.59 91.57,17.08
             91.80,15.68 92.69,15.54 93.48,15.54 Z
           M 89.11,28.81
           C 91.49,28.79 93.84,28.86 96.20,28.92
             97.02,28.99 97.94,29.10 97.69,30.59
             97.60,31.10 97.33,31.61 96.95,31.84
             96.24,32.21 95.45,32.17 94.78,32.17
             94.78,32.17 90.30,32.17 90.30,32.17
             89.44,32.17 87.89,32.17 88.17,30.50
             88.29,29.77 88.68,29.26 89.11,28.81 Z
           M 107.06,11.34
           C 107.06,11.34 103.11,34.86 103.11,34.86
             103.11,34.86 106.83,34.86 106.83,34.86
             106.83,34.86 109.03,21.79 109.03,21.79
             109.29,20.21 109.61,18.52 110.66,17.39
             111.65,16.30 113.17,16.25 114.21,16.25
             114.21,16.25 116.35,16.25 116.35,16.25
             116.35,16.25 117.17,11.34 117.17,11.34
             117.17,11.34 114.71,11.39 114.71,11.39
             113.87,11.39 113.02,11.41 112.18,11.79
             111.45,12.10 110.92,12.67 110.42,13.50
             110.42,13.50 110.78,11.34 110.78,11.34
             110.78,11.34 107.06,11.34 107.06,11.34 Z
           M 133.43,25.08
           C 133.43,25.08 134.12,20.97 134.12,20.97
             134.55,18.41 134.97,15.50 134.01,13.52
             133.01,11.54 130.88,11.30 129.05,11.30
             129.05,11.30 125.76,11.30 125.76,11.30
             124.18,11.30 122.21,11.52 120.65,12.87
             118.74,14.59 117.86,18.01 117.42,20.65
             117.42,20.65 116.66,25.14 116.66,25.14
             116.27,27.50 115.92,30.01 116.52,32.04
             117.24,34.35 119.86,34.86 121.69,34.86
             121.69,34.86 125.22,34.86 125.22,34.86
             126.27,34.86 127.35,34.73 128.43,34.28
             129.57,33.88 130.58,32.92 131.41,31.61
             132.59,29.70 133.06,27.28 133.43,25.08 Z
           M 125.69,29.95
           C 125.69,29.95 122.70,29.95 122.70,29.95
             121.94,29.95 121.02,29.81 120.51,29.12
             119.85,28.23 120.17,26.39 120.39,25.08
             120.39,25.08 121.08,21.01 121.08,21.01
             121.62,17.79 122.47,16.19 124.92,16.19
             124.92,16.19 128.15,16.19 128.15,16.19
             128.95,16.19 130.01,16.32 130.43,17.25
             130.89,18.23 130.59,19.74 130.37,21.03
             130.37,21.03 129.65,25.30 129.65,25.30
             129.07,28.79 128.17,29.95 125.69,29.95 Z
           M 142.07,11.23
           C 142.07,11.23 138.35,11.23 138.35,11.23
             138.35,11.23 135.67,27.15 135.67,27.15
             135.30,29.37 135.01,31.46 136.00,33.01
             136.90,34.46 138.55,34.77 139.98,34.77
             139.98,34.77 141.70,34.77 141.70,34.77
             143.03,34.77 144.61,34.48 145.69,32.81
             145.69,32.81 145.36,34.79 145.36,34.79
             145.36,34.79 149.09,34.79 149.09,34.79
             149.09,34.79 153.05,11.23 153.05,11.23
             153.05,11.23 149.32,11.23 149.32,11.23
             149.32,11.23 146.72,26.70 146.72,26.70
             146.56,27.63 146.30,28.61 145.63,29.19
             144.92,29.77 144.09,29.88 143.37,29.88
             143.37,29.88 141.85,29.88 141.85,29.88
             141.07,29.88 140.04,29.86 139.58,28.99
             139.21,28.23 139.40,27.08 139.57,26.10
             139.57,26.10 142.07,11.23 142.07,11.23 Z
           M 156.21,11.27
           C 156.21,11.27 152.26,34.79 152.26,34.79
             152.26,34.79 155.97,34.79 155.97,34.79
             155.97,34.79 158.54,19.50 158.54,19.50
             158.99,16.81 160.39,16.19 162.01,16.19
             162.01,16.19 163.59,16.19 163.59,16.19
             165.56,16.19 166.36,17.01 165.86,19.99
             165.86,19.99 163.36,34.84 163.36,34.84
             163.36,34.84 167.08,34.84 167.08,34.84
             167.08,34.84 169.75,18.97 169.75,18.97
             170.11,16.81 170.35,14.28 169.32,12.85
             168.38,11.59 166.82,11.27 165.43,11.27
             165.43,11.27 163.68,11.27 163.68,11.27
             162.17,11.27 160.87,11.54 159.58,13.30
             159.58,13.30 159.92,11.27 159.92,11.27
             159.92,11.27 156.21,11.27 156.21,11.27 Z
           M 190.40,4.76
           C 190.40,4.76 186.68,4.76 186.68,4.76
             186.68,4.76 185.20,13.59 185.20,13.59
             184.48,11.72 182.89,11.34 181.31,11.34
             181.31,11.34 179.96,11.39 179.96,11.39
             175.40,11.39 173.25,14.79 172.21,20.94
             172.21,20.94 171.57,24.77 171.57,24.77
             170.53,30.97 171.04,34.90 175.92,34.90
             175.92,34.90 177.71,34.90 177.71,34.90
             179.12,34.90 180.79,34.46 181.98,32.75
             181.98,32.75 181.62,34.90 181.62,34.90
             181.62,34.90 185.34,34.90 185.34,34.90
             185.34,34.90 190.40,4.76 190.40,4.76 Z
           M 179.92,16.25
           C 179.92,16.25 181.44,16.25 181.44,16.25
             182.28,16.25 183.22,16.39 183.75,17.19
             184.39,18.03 184.20,19.43 183.99,20.72
             183.99,20.72 183.22,25.28 183.22,25.28
             183.01,26.55 182.77,28.08 181.90,28.97
             181.06,29.86 180.00,30.06 179.10,30.06
             179.10,30.06 177.71,30.06 177.71,30.06
             176.87,30.06 175.74,29.88 175.30,28.97
             174.81,27.90 175.05,26.32 175.27,24.99
             175.27,24.99 175.91,21.17 175.91,21.17
             176.11,20.01 176.39,18.34 177.15,17.41
             177.95,16.45 179.05,16.25 179.92,16.25 Z
           M 210.34,13.32
           C 209.79,11.79 208.78,11.34 207.45,11.30
             207.45,11.30 206.24,11.30 206.24,11.30
             205.52,11.30 204.75,11.52 204.02,11.90
             203.41,12.19 202.93,12.79 202.46,13.43
             202.46,13.43 202.82,11.30 202.82,11.30
             202.82,11.30 199.09,11.30 199.09,11.30
             199.09,11.30 195.13,34.84 195.13,34.84
             195.13,34.84 198.86,34.84 198.86,34.84
             198.86,34.84 201.67,18.17 201.67,18.17
             201.95,16.45 203.17,16.19 204.12,16.19
             204.12,16.19 204.89,16.19 204.89,16.19
             206.09,16.19 206.70,16.83 206.40,18.61
             206.40,18.61 203.68,34.84 203.68,34.84
             203.68,34.84 207.40,34.84 207.40,34.84
             207.40,34.84 210.05,19.05 210.05,19.05
             210.42,16.83 211.05,16.19 212.58,16.19
             212.58,16.19 213.61,16.19 213.61,16.19
             214.11,16.19 214.75,16.36 215.05,16.88
             215.31,17.32 215.24,18.03 215.13,18.65
             215.13,18.65 212.41,34.84 212.41,34.84
             212.41,34.84 216.13,34.84 216.13,34.84
             216.13,34.84 219.00,17.77 219.00,17.77
             219.29,16.05 219.53,14.21 218.82,12.99
             218.12,11.72 216.85,11.30 215.63,11.30
             215.63,11.30 214.30,11.30 214.30,11.30
             213.59,11.30 212.79,11.45 212.06,11.83
             211.42,12.12 210.88,12.70 210.34,13.32 Z
           M 222.20,18.92
           C 222.20,18.92 226.04,18.92 226.04,18.92
             226.50,16.19 227.34,15.99 229.08,15.99
             229.08,15.99 230.75,15.99 230.75,15.99
             231.64,15.99 232.77,16.16 233.07,17.34
             233.26,18.17 233.03,19.23 232.88,20.14
             232.88,20.14 227.86,20.14 227.86,20.14
             223.72,20.14 221.37,20.94 220.25,27.63
             219.94,29.48 219.70,31.79 220.53,33.13
             221.37,34.46 222.92,34.77 224.28,34.77
             224.28,34.77 226.60,34.73 226.60,34.73
             227.38,34.73 228.22,34.66 229.03,34.39
             229.69,34.19 230.23,33.70 230.76,33.01
             230.76,33.01 230.58,34.77 230.58,34.77
             230.58,34.77 234.09,34.77 234.09,34.77
             234.09,34.77 236.48,20.59 236.48,20.59
             236.83,18.52 237.22,16.19 236.75,14.34
             236.04,11.67 233.92,11.27 231.89,11.27
             231.89,11.27 229.82,11.27 229.82,11.27
             228.26,11.27 226.52,11.52 225.01,12.79
             223.20,14.25 222.60,16.43 222.20,18.92 Z
           M 232.10,24.79
           C 232.10,24.79 231.52,28.23 231.52,28.23
             231.24,29.92 229.20,30.06 228.39,30.06
             228.39,30.06 225.96,30.06 225.96,30.06
             225.32,30.06 224.53,30.01 224.08,29.44
             223.73,29.03 223.79,28.28 223.91,27.59
             224.04,26.81 224.31,25.79 224.92,25.37
             225.74,24.79 226.90,24.79 227.74,24.79
             227.74,24.79 232.10,24.79 232.10,24.79 Z
           M 242.45,4.69
           C 242.45,4.69 237.38,34.84 237.38,34.84
             237.38,34.84 241.10,34.84 241.10,34.84
             241.10,34.84 243.24,22.12 243.24,22.12
             243.24,22.12 247.86,34.84 247.86,34.84
             247.86,34.84 252.71,34.84 252.71,34.84
             252.71,34.84 247.71,21.90 247.71,21.90
             247.71,21.90 256.30,11.30 256.30,11.30
             256.30,11.30 251.43,11.30 251.43,11.30
             251.43,11.30 243.33,21.59 243.33,21.59
             243.33,21.59 246.16,4.69 246.16,4.69
             246.16,4.69 242.45,4.69 242.45,4.69 Z
           M 271.74,26.77
           C 271.74,26.77 267.92,26.77 267.92,26.77
             267.75,27.59 267.59,28.59 267.04,29.24
             266.36,30.01 265.40,30.08 264.65,30.08
             264.65,30.08 262.71,30.08 262.71,30.08
             261.84,30.08 260.78,29.92 260.32,28.97
             259.93,28.10 260.15,26.75 260.33,25.66
             260.33,25.66 260.43,25.03 260.43,25.03
             260.43,25.03 266.36,24.99 266.36,24.99
             267.50,24.99 268.74,24.97 269.88,24.32
             271.90,23.19 272.63,20.97 273.06,18.41
             274.11,12.16 271.74,11.30 267.95,11.30
             267.95,11.30 265.26,11.30 265.26,11.30
             263.63,11.30 261.53,11.52 260.04,13.32
             258.51,15.16 257.80,18.37 257.40,20.77
             257.40,20.77 256.74,24.70 256.74,24.70
             255.57,31.68 256.29,34.84 261.55,34.84
             261.55,34.84 263.97,34.84 263.97,34.84
             265.68,34.84 267.94,34.66 269.51,32.86
             270.89,31.26 271.35,28.86 271.74,26.77 Z
           M 261.19,20.32
           C 261.19,20.32 261.32,19.57 261.32,19.57
             261.86,16.39 262.84,16.01 264.83,16.01
             264.83,16.01 267.36,16.01 267.36,16.01
             268.45,16.01 269.72,16.16 269.38,18.17
             269.29,18.72 269.14,19.37 268.77,19.70
             268.07,20.39 267.13,20.32 266.43,20.32
             266.43,20.32 261.19,20.32 261.19,20.32 Z
           M 277.06,11.34
           C 277.06,11.34 273.11,34.86 273.11,34.86
             273.11,34.86 276.83,34.86 276.83,34.86
             276.83,34.86 279.03,21.79 279.03,21.79
             279.29,20.21 279.61,18.52 280.66,17.39
             281.65,16.30 283.17,16.25 284.21,16.25
             284.21,16.25 286.35,16.25 286.35,16.25
             286.35,16.25 287.17,11.34 287.17,11.34
             287.17,11.34 284.71,11.39 284.71,11.39
             283.87,11.39 283.02,11.41 282.18,11.79
             281.45,12.10 280.92,12.67 280.42,13.50
             280.42,13.50 280.78,11.34 280.78,11.34
             280.78,11.34 277.06,11.34 277.06,11.34 Z
           M 297.21,4.58
           C 297.21,4.58 292.15,34.73 292.15,34.73
             292.15,34.73 295.88,34.73 295.88,34.73
             295.88,34.73 296.22,32.72 296.22,32.72
             296.91,34.28 297.95,34.77 299.38,34.77
             299.38,34.77 301.54,34.73 301.54,34.73
             306.32,34.73 308.14,31.08 309.17,24.92
             309.17,24.92 309.85,20.88 309.85,20.88
             310.86,14.90 310.13,11.23 305.53,11.23
             305.53,11.23 304.02,11.23 304.02,11.23
             303.28,11.23 302.46,11.30 301.69,11.54
             300.82,11.85 300.16,12.34 299.48,13.30
             299.48,13.30 300.95,4.58 300.95,4.58
             300.95,4.58 297.21,4.58 297.21,4.58 Z
           M 306.11,20.90
           C 306.11,20.90 305.45,24.83 305.45,24.83
             304.90,28.15 304.13,29.88 301.56,29.88
             301.56,29.88 299.70,29.88 299.70,29.88
             297.38,29.88 296.98,28.21 297.49,25.14
             297.49,25.14 298.26,20.57 298.26,20.57
             298.83,17.21 300.06,16.12 302.32,16.12
             302.32,16.12 304.06,16.16 304.06,16.16
             306.31,16.16 306.61,17.97 306.11,20.90 Z
           M 325.50,11.27
           C 325.50,11.27 319.95,24.77 319.95,24.77
             319.95,24.77 318.03,11.27 318.03,11.27
             318.03,11.27 313.71,11.27 313.71,11.27
             313.71,11.27 316.91,30.39 316.91,30.39
             316.59,30.97 316.25,31.41 315.80,31.61
             315.17,31.90 314.58,31.97 313.99,31.97
             313.99,31.97 310.77,31.97 310.77,31.97
             310.77,31.97 309.95,36.84 309.95,36.84
             309.95,36.84 312.95,36.84 312.95,36.84
             314.26,36.84 315.73,36.81 317.08,35.99
             317.90,35.48 318.66,34.64 319.31,33.68
             319.67,33.13 320.04,32.50 320.36,31.90
             320.64,31.35 320.90,30.81 321.15,30.26
             321.56,29.41 321.96,28.52 322.34,27.66
             324.77,22.19 327.20,16.74 329.65,11.27
             329.65,11.27 325.50,11.27 325.50,11.27 Z
           M 13.30,47.20
           C 13.30,47.20 8.24,77.34 8.24,77.34
             8.24,77.34 12.27,77.34 12.27,77.34
             12.27,77.34 17.33,47.20 17.33,47.20
             17.33,47.20 13.30,47.20 13.30,47.20 Z
           M 19.04,53.95
           C 19.04,53.95 15.09,77.47 15.09,77.47
             15.09,77.47 18.79,77.47 18.79,77.47
             18.79,77.47 21.36,62.18 21.36,62.18
             21.81,59.49 23.22,58.87 24.84,58.87
             24.84,58.87 26.42,58.87 26.42,58.87
             28.39,58.87 29.19,59.69 28.69,62.67
             28.69,62.67 26.19,77.52 26.19,77.52
             26.19,77.52 29.91,77.52 29.91,77.52
             29.91,77.52 32.58,61.64 32.58,61.64
             32.94,59.49 33.18,56.95 32.15,55.53
             31.21,54.26 29.65,53.95 28.26,53.95
             28.26,53.95 26.51,53.95 26.51,53.95
             25.00,53.95 23.70,54.22 22.41,55.98
             22.41,55.98 22.75,53.95 22.75,53.95
             22.75,53.95 19.04,53.95 19.04,53.95 Z
           M 39.76,47.28
           C 39.76,47.28 38.64,53.95 38.64,53.95
             38.64,53.95 36.28,53.95 36.28,53.95
             36.28,53.95 35.45,58.87 35.45,58.87
             35.45,58.87 37.81,58.87 37.81,58.87
             37.81,58.87 35.88,70.34 35.88,70.34
             35.54,72.36 35.38,74.47 36.30,75.85
             37.32,77.38 39.22,77.45 40.83,77.45
             40.83,77.45 42.94,77.40 42.94,77.40
             42.94,77.40 43.76,72.56 43.76,72.56
             43.76,72.56 41.88,72.56 41.88,72.56
             40.45,72.56 39.31,72.05 39.71,69.67
             39.71,69.67 41.53,58.87 41.53,58.87
             41.53,58.87 45.92,58.87 45.92,58.87
             45.92,58.87 46.75,53.95 46.75,53.95
             46.75,53.95 42.35,53.95 42.35,53.95
             42.35,53.95 43.48,47.28 43.48,47.28
             43.48,47.28 39.76,47.28 39.76,47.28 Z
           M 61.56,69.45
           C 61.56,69.45 57.75,69.45 57.75,69.45
             57.58,70.27 57.41,71.27 56.87,71.91
             56.19,72.69 55.23,72.76 54.48,72.76
             54.48,72.76 52.54,72.76 52.54,72.76
             51.66,72.76 50.61,72.60 50.15,71.65
             49.76,70.78 49.97,69.42 50.16,68.33
             50.16,68.33 50.26,67.71 50.26,67.71
             50.26,67.71 56.19,67.67 56.19,67.67
             57.33,67.67 58.57,67.65 59.71,67.00
             61.73,65.87 62.46,63.64 62.89,61.09
             63.94,54.84 61.57,53.98 57.77,53.98
             57.77,53.98 55.09,53.98 55.09,53.98
             53.46,53.98 51.36,54.20 49.87,56.00
             48.34,57.84 47.63,61.04 47.23,63.44
             47.23,63.44 46.57,67.38 46.57,67.38
             45.39,74.36 46.11,77.52 51.38,77.52
             51.38,77.52 53.80,77.52 53.80,77.52
             55.50,77.52 57.77,77.34 59.34,75.54
             60.71,73.94 61.18,71.54 61.56,69.45 Z
           M 51.02,63.00
           C 51.02,63.00 51.15,62.24 51.15,62.24
             51.68,59.07 52.67,58.69 54.65,58.69
             54.65,58.69 57.18,58.69 57.18,58.69
             58.28,58.69 59.55,58.84 59.21,60.84
             59.12,61.40 58.96,62.04 58.59,62.38
             57.90,63.07 56.96,63.00 56.26,63.00
             56.26,63.00 51.02,63.00 51.02,63.00 Z
           M 66.89,54.02
           C 66.89,54.02 62.94,77.54 62.94,77.54
             62.94,77.54 66.66,77.54 66.66,77.54
             66.66,77.54 68.85,64.47 68.85,64.47
             69.12,62.89 69.43,61.20 70.48,60.07
             71.48,58.98 73.00,58.93 74.03,58.93
             74.03,58.93 76.17,58.93 76.17,58.93
             76.17,58.93 77.00,54.02 77.00,54.02
             77.00,54.02 74.54,54.06 74.54,54.06
             73.70,54.06 72.85,54.09 72.00,54.46
             71.28,54.78 70.74,55.35 70.25,56.18
             70.25,56.18 70.61,54.02 70.61,54.02
             70.61,54.02 66.89,54.02 66.89,54.02 Z
           M 78.02,61.60
           C 78.02,61.60 81.87,61.60 81.87,61.60
             82.33,58.87 83.17,58.67 84.91,58.67
             84.91,58.67 86.58,58.67 86.58,58.67
             87.47,58.67 88.60,58.84 88.90,60.02
             89.09,60.84 88.86,61.91 88.71,62.82
             88.71,62.82 83.69,62.82 83.69,62.82
             79.55,62.82 77.20,63.62 76.07,70.31
             75.76,72.16 75.53,74.47 76.35,75.80
             77.19,77.14 78.75,77.45 80.11,77.45
             80.11,77.45 82.43,77.40 82.43,77.40
             83.21,77.40 84.05,77.34 84.86,77.07
             85.52,76.87 86.05,76.38 86.59,75.69
             86.59,75.69 86.41,77.45 86.41,77.45
             86.41,77.45 89.92,77.45 89.92,77.45
             89.92,77.45 92.30,63.27 92.30,63.27
             92.65,61.20 93.04,58.87 92.57,57.02
             91.87,54.35 89.75,53.95 87.71,53.95
             87.71,53.95 85.65,53.95 85.65,53.95
             84.09,53.95 82.34,54.20 80.83,55.46
             79.03,56.93 78.43,59.11 78.02,61.60 Z
           M 87.93,67.47
           C 87.93,67.47 87.35,70.91 87.35,70.91
             87.06,72.60 85.03,72.74 84.21,72.74
             84.21,72.74 81.79,72.74 81.79,72.74
             81.15,72.74 80.36,72.69 79.91,72.11
             79.56,71.71 79.62,70.96 79.74,70.27
             79.87,69.49 80.13,68.47 80.75,68.05
             81.57,67.47 82.72,67.47 83.57,67.47
             83.57,67.47 87.93,67.47 87.93,67.47 Z
           M 109.85,67.76
           C 109.85,67.76 106.13,67.76 106.13,67.76
             106.13,67.76 105.97,68.71 105.97,68.71
             105.81,69.67 105.57,70.89 104.95,71.58
             104.15,72.49 102.99,72.56 102.15,72.56
             102.15,72.56 100.35,72.56 100.35,72.56
             97.99,72.56 97.62,71.05 98.15,67.91
             98.15,67.91 98.87,63.64 98.87,63.64
             99.40,60.44 100.26,58.80 102.71,58.80
             102.71,58.80 104.38,58.80 104.38,58.80
             105.09,58.80 105.81,58.98 106.38,59.35
             107.20,59.87 107.11,61.33 106.91,62.56
             106.91,62.56 106.75,63.49 106.75,63.49
             106.75,63.49 110.47,63.49 110.47,63.49
             110.47,63.49 110.67,62.31 110.67,62.31
             111.21,59.18 111.35,56.20 109.30,54.84
             108.31,54.20 107.07,53.98 105.90,53.98
             105.90,53.98 103.40,53.98 103.40,53.98
             98.60,53.98 96.38,56.31 95.22,63.20
             95.22,63.20 94.46,67.76 94.46,67.76
             93.29,74.67 94.34,77.47 99.39,77.47
             99.39,77.47 101.76,77.47 101.76,77.47
             103.39,77.47 105.47,77.25 107.03,75.76
             108.68,74.23 109.22,71.47 109.61,69.18
             109.61,69.18 109.85,67.76 109.85,67.76 Z
           M 117.76,47.28
           C 117.76,47.28 116.64,53.95 116.64,53.95
             116.64,53.95 114.28,53.95 114.28,53.95
             114.28,53.95 113.45,58.87 113.45,58.87
             113.45,58.87 115.81,58.87 115.81,58.87
             115.81,58.87 113.88,70.34 113.88,70.34
             113.54,72.36 113.38,74.47 114.30,75.85
             115.32,77.38 117.22,77.45 118.83,77.45
             118.83,77.45 120.94,77.40 120.94,77.40
             120.94,77.40 121.76,72.56 121.76,72.56
             121.76,72.56 119.88,72.56 119.88,72.56
             118.45,72.56 117.31,72.05 117.71,69.67
             117.71,69.67 119.53,58.87 119.53,58.87
             119.53,58.87 123.92,58.87 123.92,58.87
             123.92,58.87 124.75,53.95 124.75,53.95
             124.75,53.95 120.35,53.95 120.35,53.95
             120.35,53.95 121.48,47.28 121.48,47.28
             121.48,47.28 117.76,47.28 117.76,47.28 Z
           M 128.53,47.26
           C 128.53,47.26 127.67,52.37 127.67,52.37
             127.67,52.37 131.39,52.37 131.39,52.37
             131.39,52.37 132.24,47.26 132.24,47.26
             132.24,47.26 128.53,47.26 128.53,47.26 Z
           M 127.44,53.91
           C 127.44,53.91 123.49,77.40 123.49,77.40
             123.49,77.40 127.18,77.40 127.18,77.40
             127.18,77.40 131.13,53.91 131.13,53.91
             131.13,53.91 127.44,53.91 127.44,53.91 Z
           M 146.84,54.02
           C 146.84,54.02 139.21,71.65 139.21,71.65
             139.21,71.65 137.66,54.02 137.66,54.02
             137.66,54.02 133.50,54.02 133.50,54.02
             133.50,54.02 136.02,77.52 136.02,77.52
             136.02,77.52 140.38,77.52 140.38,77.52
             140.38,77.52 151.03,54.02 151.03,54.02
             151.03,54.02 146.84,54.02 146.84,54.02 Z
           M 165.56,69.45
           C 165.56,69.45 161.75,69.45 161.75,69.45
             161.58,70.27 161.41,71.27 160.87,71.91
             160.19,72.69 159.23,72.76 158.48,72.76
             158.48,72.76 156.54,72.76 156.54,72.76
             155.66,72.76 154.61,72.60 154.15,71.65
             153.76,70.78 153.97,69.42 154.16,68.33
             154.16,68.33 154.26,67.71 154.26,67.71
             154.26,67.71 160.19,67.67 160.19,67.67
             161.33,67.67 162.57,67.65 163.71,67.00
             165.73,65.87 166.46,63.64 166.89,61.09
             167.94,54.84 165.57,53.98 161.77,53.98
             161.77,53.98 159.09,53.98 159.09,53.98
             157.46,53.98 155.36,54.20 153.87,56.00
             152.34,57.84 151.63,61.04 151.23,63.44
             151.23,63.44 150.57,67.38 150.57,67.38
             149.39,74.36 150.11,77.52 155.38,77.52
             155.38,77.52 157.80,77.52 157.80,77.52
             159.50,77.52 161.77,77.34 163.34,75.54
             164.71,73.94 165.18,71.54 165.56,69.45 Z
           M 155.02,63.00
           C 155.02,63.00 155.15,62.24 155.15,62.24
             155.68,59.07 156.67,58.69 158.65,58.69
             158.65,58.69 161.18,58.69 161.18,58.69
             162.28,58.69 163.55,58.84 163.21,60.84
             163.12,61.40 162.96,62.04 162.59,62.38
             161.90,63.07 160.96,63.00 160.26,63.00
             160.26,63.00 155.02,63.00 155.02,63.00 Z
           M 194.09,58.40
           C 194.09,58.40 198.17,58.40 198.17,58.40
             198.65,55.24 199.17,52.15 197.79,49.89
             196.32,47.53 193.63,47.28 191.29,47.28
             191.29,47.28 187.90,47.28 187.90,47.28
             185.30,47.28 182.21,47.46 179.94,50.64
             178.18,53.11 177.46,56.55 176.96,59.55
             176.96,59.55 176.02,65.16 176.02,65.16
             174.45,74.51 176.16,77.45 182.72,77.45
             182.72,77.45 186.22,77.45 186.22,77.45
             188.77,77.45 191.91,77.25 194.14,74.09
             196.04,71.47 196.65,67.89 197.23,64.67
             197.23,64.67 197.88,60.75 197.88,60.75
             197.88,60.75 187.34,60.75 187.34,60.75
             187.34,60.75 186.45,66.05 186.45,66.05
             186.45,66.05 192.96,66.05 192.96,66.05
             192.70,67.60 192.40,69.38 191.37,70.62
             190.19,72.02 188.29,72.11 187.02,72.11
             187.02,72.11 183.51,72.11 183.51,72.11
             179.77,72.11 179.17,70.18 180.03,65.09
             180.03,65.09 180.90,59.89 180.90,59.89
             181.77,54.73 182.83,52.60 186.77,52.60
             186.77,52.60 190.32,52.60 190.32,52.60
             191.43,52.60 192.76,52.73 193.63,53.44
             194.72,54.35 194.39,56.64 194.09,58.40 Z
           M 214.56,69.45
           C 214.56,69.45 210.75,69.45 210.75,69.45
             210.58,70.27 210.41,71.27 209.87,71.91
             209.19,72.69 208.23,72.76 207.48,72.76
             207.48,72.76 205.54,72.76 205.54,72.76
             204.66,72.76 203.61,72.60 203.15,71.65
             202.76,70.78 202.97,69.42 203.16,68.33
             203.16,68.33 203.26,67.71 203.26,67.71
             203.26,67.71 209.19,67.67 209.19,67.67
             210.33,67.67 211.57,67.65 212.71,67.00
             214.73,65.87 215.46,63.64 215.89,61.09
             216.94,54.84 214.57,53.98 210.77,53.98
             210.77,53.98 208.09,53.98 208.09,53.98
             206.46,53.98 204.36,54.20 202.87,56.00
             201.34,57.84 200.63,61.04 200.23,63.44
             200.23,63.44 199.57,67.38 199.57,67.38
             198.39,74.36 199.11,77.52 204.38,77.52
             204.38,77.52 206.80,77.52 206.80,77.52
             208.50,77.52 210.77,77.34 212.34,75.54
             213.71,73.94 214.18,71.54 214.56,69.45 Z
           M 204.02,63.00
           C 204.02,63.00 204.15,62.24 204.15,62.24
             204.68,59.07 205.67,58.69 207.65,58.69
             207.65,58.69 210.18,58.69 210.18,58.69
             211.28,58.69 212.55,58.84 212.21,60.84
             212.12,61.40 211.96,62.04 211.59,62.38
             210.90,63.07 209.96,63.00 209.26,63.00
             209.26,63.00 204.02,63.00 204.02,63.00 Z
           M 220.04,53.95
           C 220.04,53.95 216.09,77.47 216.09,77.47
             216.09,77.47 219.79,77.47 219.79,77.47
             219.79,77.47 222.36,62.18 222.36,62.18
             222.81,59.49 224.22,58.87 225.84,58.87
             225.84,58.87 227.42,58.87 227.42,58.87
             229.39,58.87 230.19,59.69 229.69,62.67
             229.69,62.67 227.19,77.52 227.19,77.52
             227.19,77.52 230.91,77.52 230.91,77.52
             230.91,77.52 233.58,61.64 233.58,61.64
             233.94,59.49 234.18,56.95 233.15,55.53
             232.21,54.26 230.65,53.95 229.26,53.95
             229.26,53.95 227.51,53.95 227.51,53.95
             226.00,53.95 224.70,54.22 223.41,55.98
             223.41,55.98 223.75,53.95 223.75,53.95
             223.75,53.95 220.04,53.95 220.04,53.95 Z
           M 250.56,69.45
           C 250.56,69.45 246.75,69.45 246.75,69.45
             246.58,70.27 246.41,71.27 245.87,71.91
             245.19,72.69 244.23,72.76 243.48,72.76
             243.48,72.76 241.54,72.76 241.54,72.76
             240.66,72.76 239.61,72.60 239.15,71.65
             238.76,70.78 238.97,69.42 239.16,68.33
             239.16,68.33 239.26,67.71 239.26,67.71
             239.26,67.71 245.19,67.67 245.19,67.67
             246.33,67.67 247.57,67.65 248.71,67.00
             250.73,65.87 251.46,63.64 251.89,61.09
             252.94,54.84 250.57,53.98 246.77,53.98
             246.77,53.98 244.09,53.98 244.09,53.98
             242.46,53.98 240.36,54.20 238.87,56.00
             237.34,57.84 236.63,61.04 236.23,63.44
             236.23,63.44 235.57,67.38 235.57,67.38
             234.39,74.36 235.11,77.52 240.38,77.52
             240.38,77.52 242.80,77.52 242.80,77.52
             244.50,77.52 246.77,77.34 248.34,75.54
             249.71,73.94 250.18,71.54 250.56,69.45 Z
           M 240.02,63.00
           C 240.02,63.00 240.15,62.24 240.15,62.24
             240.68,59.07 241.67,58.69 243.65,58.69
             243.65,58.69 246.18,58.69 246.18,58.69
             247.28,58.69 248.55,58.84 248.21,60.84
             248.12,61.40 247.96,62.04 247.59,62.38
             246.90,63.07 245.96,63.00 245.26,63.00
             245.26,63.00 240.02,63.00 240.02,63.00 Z
           M 258.76,47.28
           C 258.76,47.28 257.64,53.95 257.64,53.95
             257.64,53.95 255.28,53.95 255.28,53.95
             255.28,53.95 254.45,58.87 254.45,58.87
             254.45,58.87 256.81,58.87 256.81,58.87
             256.81,58.87 254.88,70.34 254.88,70.34
             254.54,72.36 254.38,74.47 255.30,75.85
             256.32,77.38 258.22,77.45 259.83,77.45
             259.83,77.45 261.94,77.40 261.94,77.40
             261.94,77.40 262.76,72.56 262.76,72.56
             262.76,72.56 260.88,72.56 260.88,72.56
             259.45,72.56 258.31,72.05 258.71,69.67
             258.71,69.67 260.53,58.87 260.53,58.87
             260.53,58.87 264.92,58.87 264.92,58.87
             264.92,58.87 265.75,53.95 265.75,53.95
             265.75,53.95 261.35,53.95 261.35,53.95
             261.35,53.95 262.48,47.28 262.48,47.28
             262.48,47.28 258.76,47.28 258.76,47.28 Z
           M 269.53,47.26
           C 269.53,47.26 268.67,52.37 268.67,52.37
             268.67,52.37 272.39,52.37 272.39,52.37
             272.39,52.37 273.24,47.26 273.24,47.26
             273.24,47.26 269.53,47.26 269.53,47.26 Z
           M 268.44,53.91
           C 268.44,53.91 264.49,77.40 264.49,77.40
             264.49,77.40 268.18,77.40 268.18,77.40
             268.18,77.40 272.13,53.91 272.13,53.91
             272.13,53.91 268.44,53.91 268.44,53.91 Z
           M 287.85,67.76
           C 287.85,67.76 284.13,67.76 284.13,67.76
             284.13,67.76 283.97,68.71 283.97,68.71
             283.81,69.67 283.57,70.89 282.95,71.58
             282.15,72.49 280.99,72.56 280.15,72.56
             280.15,72.56 278.35,72.56 278.35,72.56
             275.99,72.56 275.62,71.05 276.15,67.91
             276.15,67.91 276.87,63.64 276.87,63.64
             277.40,60.44 278.26,58.80 280.71,58.80
             280.71,58.80 282.38,58.80 282.38,58.80
             283.09,58.80 283.81,58.98 284.38,59.35
             285.20,59.87 285.11,61.33 284.91,62.56
             284.91,62.56 284.75,63.49 284.75,63.49
             284.75,63.49 288.47,63.49 288.47,63.49
             288.47,63.49 288.67,62.31 288.67,62.31
             289.21,59.18 289.35,56.20 287.30,54.84
             286.31,54.20 285.07,53.98 283.90,53.98
             283.90,53.98 281.40,53.98 281.40,53.98
             276.60,53.98 274.38,56.31 273.22,63.20
             273.22,63.20 272.46,67.76 272.46,67.76
             271.29,74.67 272.34,77.47 277.39,77.47
             277.39,77.47 279.76,77.47 279.76,77.47
             281.39,77.47 283.47,77.25 285.03,75.76
             286.68,74.23 287.22,71.47 287.61,69.18
             287.61,69.18 287.85,67.76 287.85,67.76 Z
           M 309.11,47.33
           C 309.11,47.33 295.58,77.52 295.58,77.52
             295.58,77.52 299.94,77.52 299.94,77.52
             299.94,77.52 302.43,71.74 302.43,71.74
             302.43,71.74 312.49,71.74 312.49,71.74
             312.49,71.74 313.04,77.47 313.04,77.47
             313.04,77.47 317.48,77.47 317.48,77.47
             317.48,77.47 313.86,47.33 313.86,47.33
             313.86,47.33 309.11,47.33 309.11,47.33 Z
           M 310.58,52.82
           C 310.58,52.82 311.94,66.49 311.94,66.49
             311.94,66.49 304.73,66.49 304.73,66.49
             304.73,66.49 310.58,52.82 310.58,52.82 Z
           M 325.51,47.28
           C 325.51,47.28 320.43,77.47 320.43,77.47
             320.43,77.47 324.12,77.47 324.12,77.47
             324.12,77.47 329.19,47.28 329.19,47.28
             329.19,47.28 325.51,47.28 325.51,47.28 Z
           M 344.63,55.22
           C 344.25,54.78 343.82,54.42 343.30,54.29
             342.35,54.06 341.39,53.95 340.40,53.95
             340.40,53.95 337.12,53.95 337.12,53.95
             334.00,53.95 331.64,54.60 330.76,59.82
             330.63,60.60 330.54,61.40 330.56,62.11
             330.58,63.11 330.88,63.76 331.36,64.33
             330.28,65.09 329.44,65.91 329.16,67.58
             329.03,68.36 329.12,69.00 329.29,69.67
             328.04,70.78 327.58,72.02 327.28,73.85
             326.94,75.87 326.99,77.76 328.26,78.67
             329.31,79.43 331.65,79.52 333.00,79.52
             333.00,79.52 337.07,79.52 337.07,79.52
             338.37,79.52 340.60,79.43 341.88,78.36
             343.25,77.25 343.84,74.98 344.15,73.11
             344.53,70.85 344.47,68.91 343.04,68.02
             341.90,67.33 339.10,67.45 337.71,67.45
             337.71,67.45 336.96,67.45 336.96,67.45
             336.10,67.45 335.21,67.45 334.37,67.33
             333.94,67.31 333.30,67.20 333.43,66.42
             333.50,66.00 333.87,65.67 334.13,65.42
             334.13,65.42 339.15,65.42 339.15,65.42
             340.38,65.42 341.79,65.29 343.02,64.22
             344.04,63.38 344.47,61.98 344.71,60.58
             344.71,60.58 344.73,60.44 344.73,60.44
             344.85,59.75 345.06,59.24 345.57,58.91
             346.11,58.55 346.74,58.62 347.27,58.62
             347.27,58.62 348.13,53.51 348.13,53.51
             348.13,53.51 346.93,53.51 346.93,53.51
             345.90,53.51 345.32,53.89 344.63,55.22 Z
           M 336.31,58.22
           C 336.31,58.22 339.76,58.22 339.76,58.22
             340.57,58.22 341.58,58.29 341.33,59.80
             341.09,61.22 340.01,61.42 339.24,61.42
             339.24,61.42 335.88,61.42 335.88,61.42
             335.05,61.42 334.14,61.27 334.40,59.75
             334.63,58.35 335.51,58.22 336.31,58.22 Z
           M 331.94,71.49
           C 334.32,71.47 336.67,71.54 339.03,71.60
             339.85,71.67 340.76,71.78 340.51,73.27
             340.43,73.78 340.15,74.29 339.77,74.51
             339.07,74.89 338.28,74.85 337.61,74.85
             337.61,74.85 333.12,74.85 333.12,74.85
             332.26,74.85 330.72,74.85 331.00,73.18
             331.12,72.45 331.50,71.94 331.94,71.49 Z
           M 364.25,67.76
           C 364.25,67.76 364.94,63.64 364.94,63.64
             365.37,61.09 365.80,58.18 364.84,56.20
             363.84,54.22 361.71,53.98 359.88,53.98
             359.88,53.98 356.59,53.98 356.59,53.98
             355.01,53.98 353.03,54.20 351.48,55.55
             349.56,57.27 348.69,60.69 348.25,63.33
             348.25,63.33 347.49,67.82 347.49,67.82
             347.10,70.18 346.75,72.69 347.35,74.71
             348.07,77.03 350.69,77.54 352.52,77.54
             352.52,77.54 356.05,77.54 356.05,77.54
             357.09,77.54 358.18,77.40 359.25,76.96
             360.40,76.56 361.40,75.60 362.23,74.29
             363.41,72.38 363.88,69.96 364.25,67.76 Z
           M 356.51,72.62
           C 356.51,72.62 353.53,72.62 353.53,72.62
             352.76,72.62 351.85,72.49 351.34,71.80
             350.68,70.91 351.00,69.07 351.22,67.76
             351.22,67.76 351.91,63.69 351.91,63.69
             352.45,60.47 353.29,58.87 355.75,58.87
             355.75,58.87 358.98,58.87 358.98,58.87
             359.78,58.87 360.83,59.00 361.26,59.93
             361.72,60.91 361.42,62.42 361.20,63.71
             361.20,63.71 360.48,67.98 360.48,67.98
             359.90,71.47 359.00,72.62 356.51,72.62 Z
           M 368.89,54.02
           C 368.89,54.02 364.94,77.54 364.94,77.54
             364.94,77.54 368.66,77.54 368.66,77.54
             368.66,77.54 370.85,64.47 370.85,64.47
             371.12,62.89 371.43,61.20 372.48,60.07
             373.48,58.98 375.00,58.93 376.03,58.93
             376.03,58.93 378.17,58.93 378.17,58.93
             378.17,58.93 379.00,54.02 379.00,54.02
             379.00,54.02 376.54,54.06 376.54,54.06
             375.70,54.06 374.85,54.09 374.00,54.46
             373.28,54.78 372.74,55.35 372.25,56.18
             372.25,56.18 372.61,54.02 372.61,54.02
             372.61,54.02 368.89,54.02 368.89,54.02 Z
           M 382.53,47.26
           C 382.53,47.26 381.67,52.37 381.67,52.37
             381.67,52.37 385.39,52.37 385.39,52.37
             385.39,52.37 386.24,47.26 386.24,47.26
             386.24,47.26 382.53,47.26 382.53,47.26 Z
           M 381.44,53.91
           C 381.44,53.91 377.49,77.40 377.49,77.40
             377.49,77.40 381.18,77.40 381.18,77.40
             381.18,77.40 385.13,53.91 385.13,53.91
             385.13,53.91 381.44,53.91 381.44,53.91 Z
           M 390.76,47.28
           C 390.76,47.28 389.64,53.95 389.64,53.95
             389.64,53.95 387.28,53.95 387.28,53.95
             387.28,53.95 386.45,58.87 386.45,58.87
             386.45,58.87 388.81,58.87 388.81,58.87
             388.81,58.87 386.88,70.34 386.88,70.34
             386.54,72.36 386.38,74.47 387.30,75.85
             388.32,77.38 390.22,77.45 391.83,77.45
             391.83,77.45 393.94,77.40 393.94,77.40
             393.94,77.40 394.76,72.56 394.76,72.56
             394.76,72.56 392.88,72.56 392.88,72.56
             391.45,72.56 390.31,72.05 390.71,69.67
             390.71,69.67 392.53,58.87 392.53,58.87
             392.53,58.87 396.92,58.87 396.92,58.87
             396.92,58.87 397.75,53.95 397.75,53.95
             397.75,53.95 393.35,53.95 393.35,53.95
             393.35,53.95 394.48,47.28 394.48,47.28
             394.48,47.28 390.76,47.28 390.76,47.28 Z
           M 401.17,47.26
           C 401.17,47.26 396.09,77.45 396.09,77.45
             396.09,77.45 399.81,77.45 399.81,77.45
             399.81,77.45 402.35,62.36 402.35,62.36
             402.54,61.22 402.74,60.02 403.61,59.42
             404.35,58.91 405.16,58.84 405.88,58.84
             405.88,58.84 407.42,58.84 407.42,58.84
             409.52,58.84 410.23,59.64 409.71,62.73
             409.71,62.73 407.23,77.45 407.23,77.45
             407.23,77.45 410.95,77.45 410.95,77.45
             410.95,77.45 413.56,61.93 413.56,61.93
             413.97,59.51 414.29,57.15 413.17,55.49
             412.30,54.20 410.74,53.91 409.36,53.91
             409.36,53.91 407.58,53.91 407.58,53.91
             406.86,53.91 406.08,54.02 405.35,54.33
             404.64,54.60 404.02,55.11 403.44,55.86
             403.44,55.86 404.89,47.26 404.89,47.26
             404.89,47.26 401.17,47.26 401.17,47.26 Z
           M 429.17,56.00
           C 428.61,54.46 427.61,54.02 426.27,53.98
             426.27,53.98 425.07,53.98 425.07,53.98
             424.35,53.98 423.58,54.20 422.84,54.58
             422.23,54.86 421.76,55.46 421.29,56.11
             421.29,56.11 421.65,53.98 421.65,53.98
             421.65,53.98 417.91,53.98 417.91,53.98
             417.91,53.98 413.96,77.52 413.96,77.52
             413.96,77.52 417.69,77.52 417.69,77.52
             417.69,77.52 420.49,60.84 420.49,60.84
             420.78,59.13 422.00,58.87 422.95,58.87
             422.95,58.87 423.72,58.87 423.72,58.87
             424.92,58.87 425.53,59.51 425.23,61.29
             425.23,61.29 422.50,77.52 422.50,77.52
             422.50,77.52 426.22,77.52 426.22,77.52
             426.22,77.52 428.88,61.73 428.88,61.73
             429.25,59.51 429.87,58.87 431.40,58.87
             431.40,58.87 432.44,58.87 432.44,58.87
             432.94,58.87 433.58,59.04 433.88,59.55
             434.14,60.00 434.06,60.71 433.96,61.33
             433.96,61.33 431.24,77.52 431.24,77.52
             431.24,77.52 434.96,77.52 434.96,77.52
             434.96,77.52 437.83,60.44 437.83,60.44
             438.11,58.73 438.36,56.89 437.64,55.66
             436.95,54.40 435.68,53.98 434.46,53.98
             434.46,53.98 433.13,53.98 433.13,53.98
             432.41,53.98 431.62,54.13 430.89,54.51
             430.24,54.80 429.71,55.38 429.17,56.00 Z
           M 448.30,53.98
           C 448.30,53.98 448.39,77.52 448.39,77.52
             448.39,77.52 452.69,77.52 452.69,77.52
             452.69,77.52 458.38,60.24 458.38,60.24
             458.38,60.24 458.24,77.52 458.24,77.52
             458.24,77.52 462.55,77.52 462.55,77.52
             462.55,77.52 470.71,53.98 470.71,53.98
             470.71,53.98 466.68,53.98 466.68,53.98
             466.68,53.98 461.36,71.02 461.36,71.02
             461.36,71.02 461.54,53.98 461.54,53.98
             461.54,53.98 457.35,53.98 457.35,53.98
             457.35,53.98 451.83,70.91 451.83,70.91
             451.83,70.91 452.29,53.98 452.29,53.98
             452.29,53.98 448.30,53.98 448.30,53.98 Z
           M 474.53,47.26
           C 474.53,47.26 473.67,52.37 473.67,52.37
             473.67,52.37 477.39,52.37 477.39,52.37
             477.39,52.37 478.24,47.26 478.24,47.26
             478.24,47.26 474.53,47.26 474.53,47.26 Z
           M 473.44,53.91
           C 473.44,53.91 469.49,77.40 469.49,77.40
             469.49,77.40 473.18,77.40 473.18,77.40
             473.18,77.40 477.13,53.91 477.13,53.91
             477.13,53.91 473.44,53.91 473.44,53.91 Z
           M 482.76,47.28
           C 482.76,47.28 481.64,53.95 481.64,53.95
             481.64,53.95 479.28,53.95 479.28,53.95
             479.28,53.95 478.45,58.87 478.45,58.87
             478.45,58.87 480.81,58.87 480.81,58.87
             480.81,58.87 478.88,70.34 478.88,70.34
             478.54,72.36 478.38,74.47 479.30,75.85
             480.32,77.38 482.22,77.45 483.83,77.45
             483.83,77.45 485.94,77.40 485.94,77.40
             485.94,77.40 486.76,72.56 486.76,72.56
             486.76,72.56 484.88,72.56 484.88,72.56
             483.45,72.56 482.31,72.05 482.71,69.67
             482.71,69.67 484.53,58.87 484.53,58.87
             484.53,58.87 488.92,58.87 488.92,58.87
             488.92,58.87 489.75,53.95 489.75,53.95
             489.75,53.95 485.35,53.95 485.35,53.95
             485.35,53.95 486.48,47.28 486.48,47.28
             486.48,47.28 482.76,47.28 482.76,47.28 Z
           M 493.17,47.26
           C 493.17,47.26 488.09,77.45 488.09,77.45
             488.09,77.45 491.81,77.45 491.81,77.45
             491.81,77.45 494.35,62.36 494.35,62.36
             494.54,61.22 494.74,60.02 495.61,59.42
             496.35,58.91 497.16,58.84 497.88,58.84
             497.88,58.84 499.42,58.84 499.42,58.84
             501.52,58.84 502.23,59.64 501.71,62.73
             501.71,62.73 499.23,77.45 499.23,77.45
             499.23,77.45 502.95,77.45 502.95,77.45
             502.95,77.45 505.56,61.93 505.56,61.93
             505.97,59.51 506.29,57.15 505.17,55.49
             504.30,54.20 502.74,53.91 501.36,53.91
             501.36,53.91 499.58,53.91 499.58,53.91
             498.86,53.91 498.08,54.02 497.35,54.33
             496.64,54.60 496.02,55.11 495.44,55.86
             495.44,55.86 496.89,47.26 496.89,47.26
             496.89,47.26 493.17,47.26 493.17,47.26 Z
           M 13.18,89.96
           C 13.18,89.96 8.12,120.08 8.12,120.08
             8.12,120.08 12.08,120.08 12.08,120.08
             12.08,120.08 16.00,96.76 16.00,96.76
             16.00,96.76 22.35,120.08 22.35,120.08
             22.35,120.08 27.15,120.08 27.15,120.08
             27.15,120.08 32.21,89.96 32.21,89.96
             32.21,89.96 28.26,89.96 28.26,89.96
             28.26,89.96 24.50,112.48 24.50,112.48
             24.50,112.48 18.36,89.96 18.36,89.96
             18.36,89.96 13.18,89.96 13.18,89.96 Z
           M 32.85,104.28
           C 32.85,104.28 36.69,104.28 36.69,104.28
             37.15,101.54 38.00,101.34 39.73,101.34
             39.73,101.34 41.41,101.34 41.41,101.34
             42.30,101.34 43.42,101.52 43.72,102.70
             43.91,103.52 43.69,104.59 43.53,105.50
             43.53,105.50 38.52,105.50 38.52,105.50
             34.38,105.50 32.03,106.30 30.90,112.99
             30.59,114.84 30.36,117.15 31.18,118.48
             32.02,119.82 33.58,120.13 34.94,120.13
             34.94,120.13 37.26,120.08 37.26,120.08
             38.04,120.08 38.88,120.02 39.69,119.75
             40.35,119.55 40.88,119.06 41.42,118.37
             41.42,118.37 41.23,120.13 41.23,120.13
             41.23,120.13 44.75,120.13 44.75,120.13
             44.75,120.13 47.13,105.95 47.13,105.95
             47.48,103.88 47.87,101.54 47.40,99.70
             46.69,97.03 44.57,96.63 42.54,96.63
             42.54,96.63 40.48,96.63 40.48,96.63
             38.92,96.63 37.17,96.88 35.66,98.14
             33.85,99.61 33.25,101.79 32.85,104.28 Z
           M 42.75,110.15
           C 42.75,110.15 42.17,113.59 42.17,113.59
             41.89,115.28 39.85,115.41 39.04,115.41
             39.04,115.41 36.62,115.41 36.62,115.41
             35.98,115.41 35.19,115.37 34.74,114.79
             34.38,114.39 34.45,113.64 34.56,112.95
             34.70,112.17 34.96,111.15 35.58,110.72
             36.39,110.15 37.55,110.15 38.39,110.15
             38.39,110.15 42.75,110.15 42.75,110.15 Z
           M 54.58,89.96
           C 54.58,89.96 53.46,96.63 53.46,96.63
             53.46,96.63 51.10,96.63 51.10,96.63
             51.10,96.63 50.28,101.54 50.28,101.54
             50.28,101.54 52.64,101.54 52.64,101.54
             52.64,101.54 50.71,113.01 50.71,113.01
             50.37,115.04 50.20,117.15 51.13,118.53
             52.15,120.06 54.05,120.13 55.65,120.13
             55.65,120.13 57.77,120.08 57.77,120.08
             57.77,120.08 58.59,115.24 58.59,115.24
             58.59,115.24 56.71,115.24 56.71,115.24
             55.27,115.24 54.14,114.73 54.54,112.35
             54.54,112.35 56.36,101.54 56.36,101.54
             56.36,101.54 60.75,101.54 60.75,101.54
             60.75,101.54 61.57,96.63 61.57,96.63
             61.57,96.63 57.18,96.63 57.18,96.63
             57.18,96.63 58.30,89.96 58.30,89.96
             58.30,89.96 54.58,89.96 54.58,89.96 Z
           M 67.72,96.59
           C 67.72,96.59 64.00,96.59 64.00,96.59
             64.00,96.59 61.33,112.50 61.33,112.50
             60.95,114.73 60.66,116.82 61.65,118.37
             62.55,119.82 64.20,120.13 65.64,120.13
             65.64,120.13 67.36,120.13 67.36,120.13
             68.69,120.13 70.27,119.84 71.34,118.17
             71.34,118.17 71.01,120.15 71.01,120.15
             71.01,120.15 74.74,120.15 74.74,120.15
             74.74,120.15 78.70,96.59 78.70,96.59
             78.70,96.59 74.97,96.59 74.97,96.59
             74.97,96.59 72.37,112.06 72.37,112.06
             72.21,112.99 71.96,113.97 71.28,114.55
             70.57,115.13 69.74,115.24 69.02,115.24
             69.02,115.24 67.51,115.24 67.51,115.24
             66.73,115.24 65.70,115.21 65.24,114.35
             64.86,113.59 65.06,112.44 65.22,111.46
             65.22,111.46 67.72,96.59 67.72,96.59 Z
           M 81.72,96.70
           C 81.72,96.70 77.76,120.22 77.76,120.22
             77.76,120.22 81.48,120.22 81.48,120.22
             81.48,120.22 83.68,107.15 83.68,107.15
             83.95,105.57 84.26,103.88 85.31,102.74
             86.31,101.66 87.83,101.61 88.86,101.61
             88.86,101.61 91.00,101.61 91.00,101.61
             91.00,101.61 91.83,96.70 91.83,96.70
             91.83,96.70 89.37,96.74 89.37,96.74
             88.52,96.74 87.67,96.76 86.83,97.14
             86.11,97.45 85.57,98.03 85.07,98.85
             85.07,98.85 85.44,96.70 85.44,96.70
             85.44,96.70 81.72,96.70 81.72,96.70 Z
           M 92.85,104.28
           C 92.85,104.28 96.69,104.28 96.69,104.28
             97.15,101.54 98.00,101.34 99.73,101.34
             99.73,101.34 101.41,101.34 101.41,101.34
             102.30,101.34 103.42,101.52 103.72,102.70
             103.91,103.52 103.69,104.59 103.53,105.50
             103.53,105.50 98.52,105.50 98.52,105.50
             94.38,105.50 92.03,106.30 90.90,112.99
             90.59,114.84 90.36,117.15 91.18,118.48
             92.02,119.82 93.58,120.13 94.94,120.13
             94.94,120.13 97.26,120.08 97.26,120.08
             98.04,120.08 98.88,120.02 99.69,119.75
             100.35,119.55 100.88,119.06 101.42,118.37
             101.42,118.37 101.23,120.13 101.23,120.13
             101.23,120.13 104.75,120.13 104.75,120.13
             104.75,120.13 107.13,105.95 107.13,105.95
             107.48,103.88 107.87,101.54 107.40,99.70
             106.69,97.03 104.57,96.63 102.54,96.63
             102.54,96.63 100.48,96.63 100.48,96.63
             98.92,96.63 97.17,96.88 95.66,98.14
             93.85,99.61 93.25,101.79 92.85,104.28 Z
           M 102.75,110.15
           C 102.75,110.15 102.17,113.59 102.17,113.59
             101.89,115.28 99.85,115.41 99.04,115.41
             99.04,115.41 96.62,115.41 96.62,115.41
             95.98,115.41 95.19,115.37 94.74,114.79
             94.38,114.39 94.45,113.64 94.56,112.95
             94.70,112.17 94.96,111.15 95.58,110.72
             96.39,110.15 97.55,110.15 98.39,110.15
             98.39,110.15 102.75,110.15 102.75,110.15 Z
           M 113.33,89.96
           C 113.33,89.96 108.26,120.15 108.26,120.15
             108.26,120.15 111.95,120.15 111.95,120.15
             111.95,120.15 117.02,89.96 117.02,89.96
             117.02,89.96 113.33,89.96 113.33,89.96 Z
           M 127.33,89.96
           C 127.33,89.96 122.26,120.15 122.26,120.15
             122.26,120.15 125.95,120.15 125.95,120.15
             125.95,120.15 131.02,89.96 131.02,89.96
             131.02,89.96 127.33,89.96 127.33,89.96 Z
           M 131.85,104.28
           C 131.85,104.28 135.69,104.28 135.69,104.28
             136.15,101.54 137.00,101.34 138.73,101.34
             138.73,101.34 140.41,101.34 140.41,101.34
             141.30,101.34 142.42,101.52 142.72,102.70
             142.91,103.52 142.69,104.59 142.53,105.50
             142.53,105.50 137.52,105.50 137.52,105.50
             133.38,105.50 131.03,106.30 129.90,112.99
             129.59,114.84 129.36,117.15 130.18,118.48
             131.02,119.82 132.58,120.13 133.94,120.13
             133.94,120.13 136.26,120.08 136.26,120.08
             137.04,120.08 137.88,120.02 138.69,119.75
             139.35,119.55 139.88,119.06 140.42,118.37
             140.42,118.37 140.23,120.13 140.23,120.13
             140.23,120.13 143.75,120.13 143.75,120.13
             143.75,120.13 146.13,105.95 146.13,105.95
             146.48,103.88 146.87,101.54 146.40,99.70
             145.69,97.03 143.57,96.63 141.54,96.63
             141.54,96.63 139.48,96.63 139.48,96.63
             137.92,96.63 136.17,96.88 134.66,98.14
             132.85,99.61 132.25,101.79 131.85,104.28 Z
           M 141.75,110.15
           C 141.75,110.15 141.17,113.59 141.17,113.59
             140.89,115.28 138.85,115.41 138.04,115.41
             138.04,115.41 135.62,115.41 135.62,115.41
             134.98,115.41 134.19,115.37 133.74,114.79
             133.38,114.39 133.45,113.64 133.56,112.95
             133.70,112.17 133.96,111.15 134.58,110.72
             135.39,110.15 136.55,110.15 137.39,110.15
             137.39,110.15 141.75,110.15 141.75,110.15 Z
           M 150.87,96.63
           C 150.87,96.63 146.92,120.15 146.92,120.15
             146.92,120.15 150.62,120.15 150.62,120.15
             150.62,120.15 153.19,104.86 153.19,104.86
             153.64,102.17 155.04,101.54 156.67,101.54
             156.67,101.54 158.25,101.54 158.25,101.54
             160.22,101.54 161.01,102.37 160.51,105.35
             160.51,105.35 158.02,120.19 158.02,120.19
             158.02,120.19 161.74,120.19 161.74,120.19
             161.74,120.19 164.40,104.32 164.40,104.32
             164.77,102.17 165.01,99.63 163.98,98.21
             163.04,96.94 161.48,96.63 160.09,96.63
             160.09,96.63 158.34,96.63 158.34,96.63
             156.82,96.63 155.53,96.90 154.23,98.65
             154.23,98.65 154.57,96.63 154.57,96.63
             154.57,96.63 150.87,96.63 150.87,96.63 Z
           M 182.45,97.90
           C 182.07,97.45 181.65,97.10 181.13,96.97
             180.18,96.74 179.21,96.63 178.23,96.63
             178.23,96.63 174.95,96.63 174.95,96.63
             171.82,96.63 169.46,97.28 168.59,102.50
             168.46,103.28 168.37,104.08 168.39,104.79
             168.41,105.79 168.71,106.43 169.19,107.01
             168.11,107.77 167.27,108.59 166.99,110.26
             166.85,111.04 166.95,111.68 167.12,112.35
             165.87,113.46 165.41,114.70 165.10,116.53
             164.76,118.55 164.82,120.44 166.09,121.35
             167.13,122.11 169.48,122.19 170.82,122.19
             170.82,122.19 174.90,122.19 174.90,122.19
             176.20,122.19 178.43,122.11 179.70,121.04
             181.08,119.93 181.66,117.66 181.98,115.79
             182.36,113.53 182.29,111.59 180.86,110.70
             179.73,110.01 176.93,110.12 175.54,110.12
             175.54,110.12 174.79,110.12 174.79,110.12
             173.93,110.12 173.04,110.12 172.20,110.01
             171.76,109.99 171.13,109.88 171.26,109.10
             171.33,108.68 171.70,108.35 171.96,108.10
             171.96,108.10 176.97,108.10 176.97,108.10
             178.21,108.10 179.62,107.97 180.85,106.90
             181.86,106.06 182.30,104.66 182.54,103.26
             182.54,103.26 182.56,103.12 182.56,103.12
             182.68,102.43 182.89,101.92 183.40,101.59
             183.94,101.23 184.57,101.30 185.10,101.30
             185.10,101.30 185.96,96.19 185.96,96.19
             185.96,96.19 184.76,96.19 184.76,96.19
             183.73,96.19 183.15,96.56 182.45,97.90 Z
           M 174.14,100.90
           C 174.14,100.90 177.59,100.90 177.59,100.90
             178.40,100.90 179.41,100.97 179.15,102.48
             178.91,103.90 177.83,104.10 177.07,104.10
             177.07,104.10 173.71,104.10 173.71,104.10
             172.88,104.10 171.97,103.94 172.22,102.43
             172.46,101.03 173.34,100.90 174.14,100.90 Z
           M 169.77,114.17
           C 172.14,114.15 174.49,114.21 176.86,114.28
             177.67,114.35 178.59,114.46 178.34,115.95
             178.26,116.46 177.98,116.97 177.60,117.19
             176.90,117.57 176.11,117.53 175.44,117.53
             175.44,117.53 170.95,117.53 170.95,117.53
             170.09,117.53 168.54,117.53 168.83,115.86
             168.95,115.13 169.33,114.61 169.77,114.17 Z
           M 191.72,96.59
           C 191.72,96.59 188.00,96.59 188.00,96.59
             188.00,96.59 185.33,112.50 185.33,112.50
             184.95,114.73 184.66,116.82 185.65,118.37
             186.55,119.82 188.20,120.13 189.64,120.13
             189.64,120.13 191.36,120.13 191.36,120.13
             192.69,120.13 194.27,119.84 195.34,118.17
             195.34,118.17 195.01,120.15 195.01,120.15
             195.01,120.15 198.74,120.15 198.74,120.15
             198.74,120.15 202.70,96.59 202.70,96.59
             202.70,96.59 198.97,96.59 198.97,96.59
             198.97,96.59 196.37,112.06 196.37,112.06
             196.21,112.99 195.96,113.97 195.28,114.55
             194.57,115.13 193.74,115.24 193.02,115.24
             193.02,115.24 191.51,115.24 191.51,115.24
             190.73,115.24 189.70,115.21 189.24,114.35
             188.86,113.59 189.06,112.44 189.22,111.46
             189.22,111.46 191.72,96.59 191.72,96.59 Z
           M 204.85,104.28
           C 204.85,104.28 208.69,104.28 208.69,104.28
             209.15,101.54 210.00,101.34 211.73,101.34
             211.73,101.34 213.41,101.34 213.41,101.34
             214.30,101.34 215.42,101.52 215.72,102.70
             215.91,103.52 215.69,104.59 215.53,105.50
             215.53,105.50 210.52,105.50 210.52,105.50
             206.38,105.50 204.03,106.30 202.90,112.99
             202.59,114.84 202.36,117.15 203.18,118.48
             204.02,119.82 205.58,120.13 206.94,120.13
             206.94,120.13 209.26,120.08 209.26,120.08
             210.04,120.08 210.88,120.02 211.69,119.75
             212.35,119.55 212.88,119.06 213.42,118.37
             213.42,118.37 213.23,120.13 213.23,120.13
             213.23,120.13 216.75,120.13 216.75,120.13
             216.75,120.13 219.13,105.95 219.13,105.95
             219.48,103.88 219.87,101.54 219.40,99.70
             218.69,97.03 216.57,96.63 214.54,96.63
             214.54,96.63 212.48,96.63 212.48,96.63
             210.92,96.63 209.17,96.88 207.66,98.14
             205.85,99.61 205.25,101.79 204.85,104.28 Z
           M 214.75,110.15
           C 214.75,110.15 214.17,113.59 214.17,113.59
             213.89,115.28 211.85,115.41 211.04,115.41
             211.04,115.41 208.62,115.41 208.62,115.41
             207.98,115.41 207.19,115.37 206.74,114.79
             206.38,114.39 206.45,113.64 206.56,112.95
             206.70,112.17 206.96,111.15 207.58,110.72
             208.39,110.15 209.55,110.15 210.39,110.15
             210.39,110.15 214.75,110.15 214.75,110.15 Z
           M 237.45,97.90
           C 237.07,97.45 236.65,97.10 236.13,96.97
             235.18,96.74 234.21,96.63 233.23,96.63
             233.23,96.63 229.95,96.63 229.95,96.63
             226.82,96.63 224.46,97.28 223.59,102.50
             223.46,103.28 223.37,104.08 223.39,104.79
             223.41,105.79 223.71,106.43 224.19,107.01
             223.11,107.77 222.27,108.59 221.99,110.26
             221.85,111.04 221.95,111.68 222.12,112.35
             220.87,113.46 220.41,114.70 220.10,116.53
             219.76,118.55 219.82,120.44 221.09,121.35
             222.13,122.11 224.48,122.19 225.82,122.19
             225.82,122.19 229.90,122.19 229.90,122.19
             231.20,122.19 233.43,122.11 234.70,121.04
             236.08,119.93 236.66,117.66 236.98,115.79
             237.36,113.53 237.29,111.59 235.86,110.70
             234.73,110.01 231.93,110.12 230.54,110.12
             230.54,110.12 229.79,110.12 229.79,110.12
             228.93,110.12 228.04,110.12 227.20,110.01
             226.76,109.99 226.13,109.88 226.26,109.10
             226.33,108.68 226.70,108.35 226.96,108.10
             226.96,108.10 231.97,108.10 231.97,108.10
             233.21,108.10 234.62,107.97 235.85,106.90
             236.86,106.06 237.30,104.66 237.54,103.26
             237.54,103.26 237.56,103.12 237.56,103.12
             237.68,102.43 237.89,101.92 238.40,101.59
             238.94,101.23 239.57,101.30 240.10,101.30
             240.10,101.30 240.96,96.19 240.96,96.19
             240.96,96.19 239.76,96.19 239.76,96.19
             238.73,96.19 238.15,96.56 237.45,97.90 Z
           M 229.14,100.90
           C 229.14,100.90 232.59,100.90 232.59,100.90
             233.40,100.90 234.41,100.97 234.15,102.48
             233.91,103.90 232.83,104.10 232.07,104.10
             232.07,104.10 228.71,104.10 228.71,104.10
             227.88,104.10 226.97,103.94 227.22,102.43
             227.46,101.03 228.34,100.90 229.14,100.90 Z
           M 224.77,114.17
           C 227.14,114.15 229.49,114.21 231.86,114.28
             232.67,114.35 233.59,114.46 233.34,115.95
             233.26,116.46 232.98,116.97 232.60,117.19
             231.90,117.57 231.11,117.53 230.44,117.53
             230.44,117.53 225.95,117.53 225.95,117.53
             225.09,117.53 223.54,117.53 223.83,115.86
             223.95,115.13 224.33,114.61 224.77,114.17 Z
           M 255.39,112.12
           C 255.39,112.12 251.58,112.12 251.58,112.12
             251.41,112.95 251.24,113.95 250.69,114.59
             250.02,115.37 249.05,115.44 248.30,115.44
             248.30,115.44 246.36,115.44 246.36,115.44
             245.49,115.44 244.44,115.28 243.97,114.33
             243.59,113.46 243.80,112.10 243.98,111.01
             243.98,111.01 244.09,110.39 244.09,110.39
             244.09,110.39 250.02,110.35 250.02,110.35
             251.16,110.35 252.40,110.32 253.54,109.68
             255.55,108.55 256.29,106.32 256.72,103.77
             257.77,97.52 255.40,96.65 251.60,96.65
             251.60,96.65 248.91,96.65 248.91,96.65
             247.29,96.65 245.19,96.88 243.70,98.68
             242.17,100.52 241.46,103.72 241.06,106.12
             241.06,106.12 240.39,110.06 240.39,110.06
             239.22,117.04 239.94,120.19 245.21,120.19
             245.21,120.19 247.63,120.19 247.63,120.19
             249.33,120.19 251.60,120.02 253.16,118.22
             254.54,116.61 255.01,114.21 255.39,112.12 Z
           M 244.85,105.68
           C 244.85,105.68 244.98,104.92 244.98,104.92
             245.51,101.74 246.50,101.37 248.48,101.37
             248.48,101.37 251.01,101.37 251.01,101.37
             252.10,101.37 253.38,101.52 253.04,103.52
             252.95,104.08 252.79,104.72 252.42,105.06
             251.73,105.75 250.79,105.68 250.08,105.68
             250.08,105.68 244.85,105.68 244.85,105.68 Z
           M 268.20,116.70
           C 268.93,118.28 270.29,118.48 271.71,118.48
             271.71,118.48 273.42,118.48 273.42,118.48
             278.07,118.48 279.93,115.17 280.96,108.99
             280.96,108.99 281.40,106.39 281.40,106.39
             282.44,100.19 281.83,96.70 277.08,96.70
             277.08,96.70 274.94,96.70 274.94,96.70
             273.59,96.70 272.45,96.97 271.26,98.48
             271.26,98.48 271.57,96.65 271.57,96.65
             271.57,96.65 267.82,96.65 267.82,96.65
             267.82,96.65 263.52,122.24 263.52,122.24
             263.52,122.24 267.27,122.24 267.27,122.24
             267.27,122.24 268.20,116.70 268.20,116.70 Z
           M 273.65,113.64
           C 273.65,113.64 272.09,113.64 272.09,113.64
             269.50,113.64 268.84,112.99 269.48,109.17
             269.48,109.17 270.01,106.01 270.01,106.01
             270.57,102.68 271.30,101.52 273.75,101.52
             273.75,101.52 275.47,101.52 275.47,101.52
             278.05,101.52 278.26,102.94 277.69,106.32
             277.69,106.32 277.30,108.68 277.30,108.68
             277.10,109.88 276.81,111.68 276.03,112.61
             275.37,113.44 274.42,113.64 273.65,113.64 Z
           M 285.72,96.70
           C 285.72,96.70 281.76,120.22 281.76,120.22
             281.76,120.22 285.48,120.22 285.48,120.22
             285.48,120.22 287.68,107.15 287.68,107.15
             287.95,105.57 288.26,103.88 289.31,102.74
             290.31,101.66 291.83,101.61 292.86,101.61
             292.86,101.61 295.00,101.61 295.00,101.61
             295.00,101.61 295.83,96.70 295.83,96.70
             295.83,96.70 293.37,96.74 293.37,96.74
             292.52,96.74 291.67,96.76 290.83,97.14
             290.11,97.45 289.57,98.03 289.07,98.85
             289.07,98.85 289.44,96.70 289.44,96.70
             289.44,96.70 285.72,96.70 285.72,96.70 Z
           M 312.08,110.44
           C 312.08,110.44 312.77,106.32 312.77,106.32
             313.20,103.77 313.63,100.86 312.66,98.88
             311.67,96.90 309.54,96.65 307.71,96.65
             307.71,96.65 304.41,96.65 304.41,96.65
             302.83,96.65 300.86,96.88 299.30,98.23
             297.39,99.94 296.52,103.37 296.07,106.01
             296.07,106.01 295.32,110.50 295.32,110.50
             294.92,112.86 294.58,115.37 295.18,117.39
             295.90,119.70 298.51,120.22 300.34,120.22
             300.34,120.22 303.87,120.22 303.87,120.22
             304.92,120.22 306.01,120.08 307.08,119.64
             308.23,119.24 309.23,118.28 310.06,116.97
             311.24,115.06 311.71,112.64 312.08,110.44 Z
           M 304.34,115.30
           C 304.34,115.30 301.36,115.30 301.36,115.30
             300.59,115.30 299.68,115.17 299.17,114.48
             298.50,113.59 298.83,111.75 299.05,110.44
             299.05,110.44 299.73,106.37 299.73,106.37
             300.27,103.14 301.12,101.54 303.57,101.54
             303.57,101.54 306.81,101.54 306.81,101.54
             307.61,101.54 308.66,101.68 309.08,102.61
             309.54,103.59 309.24,105.10 309.03,106.39
             309.03,106.39 308.31,110.66 308.31,110.66
             307.72,114.15 306.82,115.30 304.34,115.30 Z
           M 329.67,110.44
           C 329.67,110.44 325.96,110.44 325.96,110.44
             325.96,110.44 325.79,111.39 325.79,111.39
             325.63,112.35 325.40,113.57 324.78,114.26
             323.97,115.17 322.82,115.24 321.98,115.24
             321.98,115.24 320.18,115.24 320.18,115.24
             317.82,115.24 317.45,113.73 317.98,110.59
             317.98,110.59 318.69,106.32 318.69,106.32
             319.23,103.12 320.09,101.48 322.54,101.48
             322.54,101.48 324.21,101.48 324.21,101.48
             324.91,101.48 325.63,101.66 326.21,102.03
             327.03,102.54 326.94,104.01 326.74,105.23
             326.74,105.23 326.58,106.17 326.58,106.17
             326.58,106.17 330.30,106.17 330.30,106.17
             330.30,106.17 330.50,104.99 330.50,104.99
             331.04,101.86 331.18,98.88 329.13,97.52
             328.14,96.88 326.90,96.65 325.72,96.65
             325.72,96.65 323.22,96.65 323.22,96.65
             318.43,96.65 316.21,98.99 315.05,105.88
             315.05,105.88 314.28,110.44 314.28,110.44
             313.12,117.35 314.17,120.15 319.21,120.15
             319.21,120.15 321.59,120.15 321.59,120.15
             323.21,120.15 325.30,119.93 326.86,118.44
             328.51,116.90 329.05,114.15 329.44,111.86
             329.44,111.86 329.67,110.44 329.67,110.44 Z
           M 347.39,112.12
           C 347.39,112.12 343.58,112.12 343.58,112.12
             343.41,112.95 343.24,113.95 342.69,114.59
             342.02,115.37 341.05,115.44 340.30,115.44
             340.30,115.44 338.36,115.44 338.36,115.44
             337.49,115.44 336.44,115.28 335.97,114.33
             335.59,113.46 335.80,112.10 335.98,111.01
             335.98,111.01 336.09,110.39 336.09,110.39
             336.09,110.39 342.02,110.35 342.02,110.35
             343.16,110.35 344.40,110.32 345.54,109.68
             347.55,108.55 348.29,106.32 348.72,103.77
             349.77,97.52 347.40,96.65 343.60,96.65
             343.60,96.65 340.91,96.65 340.91,96.65
             339.29,96.65 337.19,96.88 335.70,98.68
             334.17,100.52 333.46,103.72 333.06,106.12
             333.06,106.12 332.39,110.06 332.39,110.06
             331.22,117.04 331.94,120.19 337.21,120.19
             337.21,120.19 339.63,120.19 339.63,120.19
             341.33,120.19 343.60,120.02 345.16,118.22
             346.54,116.61 347.01,114.21 347.39,112.12 Z
           M 336.85,105.68
           C 336.85,105.68 336.98,104.92 336.98,104.92
             337.51,101.74 338.50,101.37 340.48,101.37
             340.48,101.37 343.01,101.37 343.01,101.37
             344.10,101.37 345.38,101.52 345.04,103.52
             344.95,104.08 344.79,104.72 344.42,105.06
             343.73,105.75 342.79,105.68 342.08,105.68
             342.08,105.68 336.85,105.68 336.85,105.68 Z
           M 350.16,112.04
           C 350.16,112.04 350.02,112.86 350.02,112.86
             349.71,114.70 349.51,116.61 350.15,118.08
             351.04,119.99 353.45,120.15 355.14,120.15
             355.14,120.15 357.78,120.15 357.78,120.15
             361.89,120.15 364.18,118.88 365.25,112.50
             366.22,106.75 364.44,105.79 360.80,105.68
             359.67,105.63 356.75,105.72 355.85,105.28
             355.39,104.99 355.35,104.28 355.48,103.52
             355.81,101.54 356.93,101.46 358.31,101.46
             358.31,101.46 360.34,101.46 360.34,101.46
             360.96,101.46 361.95,101.46 362.41,101.90
             362.87,102.37 362.63,103.52 362.48,104.32
             362.48,104.32 366.15,104.32 366.15,104.32
             366.55,102.06 367.05,99.39 365.82,97.97
             364.69,96.65 362.90,96.63 361.32,96.63
             361.32,96.63 359.13,96.63 359.13,96.63
             355.34,96.63 352.75,97.52 351.70,103.77
             351.36,105.79 351.21,107.97 352.29,109.12
             353.40,110.32 355.01,110.32 356.49,110.44
             357.48,110.46 360.47,110.46 361.13,110.90
             361.62,111.21 361.60,112.06 361.47,112.86
             361.34,113.66 361.13,114.35 360.52,114.79
             359.91,115.28 359.22,115.35 358.60,115.35
             358.60,115.35 356.08,115.35 356.08,115.35
             355.40,115.35 354.34,115.28 353.91,114.59
             353.54,113.95 353.76,112.93 353.91,112.04
             353.91,112.04 350.16,112.04 350.16,112.04 Z
           M 368.16,112.04
           C 368.16,112.04 368.02,112.86 368.02,112.86
             367.71,114.70 367.51,116.61 368.15,118.08
             369.04,119.99 371.45,120.15 373.14,120.15
             373.14,120.15 375.78,120.15 375.78,120.15
             379.89,120.15 382.18,118.88 383.25,112.50
             384.22,106.75 382.44,105.79 378.80,105.68
             377.67,105.63 374.75,105.72 373.85,105.28
             373.39,104.99 373.35,104.28 373.48,103.52
             373.81,101.54 374.93,101.46 376.31,101.46
             376.31,101.46 378.34,101.46 378.34,101.46
             378.96,101.46 379.95,101.46 380.41,101.90
             380.87,102.37 380.63,103.52 380.48,104.32
             380.48,104.32 384.15,104.32 384.15,104.32
             384.55,102.06 385.05,99.39 383.82,97.97
             382.69,96.65 380.90,96.63 379.32,96.63
             379.32,96.63 377.13,96.63 377.13,96.63
             373.34,96.63 370.75,97.52 369.70,103.77
             369.36,105.79 369.21,107.97 370.29,109.12
             371.40,110.32 373.01,110.32 374.49,110.44
             375.48,110.46 378.47,110.46 379.13,110.90
             379.62,111.21 379.60,112.06 379.47,112.86
             379.34,113.66 379.13,114.35 378.52,114.79
             377.91,115.28 377.22,115.35 376.60,115.35
             376.60,115.35 374.08,115.35 374.08,115.35
             373.40,115.35 372.34,115.28 371.91,114.59
             371.54,113.95 371.76,112.93 371.91,112.04
             371.91,112.04 368.16,112.04 368.16,112.04 Z
           M 390.35,89.94
           C 390.35,89.94 389.49,95.05 389.49,95.05
             389.49,95.05 393.21,95.05 393.21,95.05
             393.21,95.05 394.07,89.94 394.07,89.94
             394.07,89.94 390.35,89.94 390.35,89.94 Z
           M 389.27,96.59
           C 389.27,96.59 385.32,120.08 385.32,120.08
             385.32,120.08 389.01,120.08 389.01,120.08
             389.01,120.08 392.95,96.59 392.95,96.59
             392.95,96.59 389.27,96.59 389.27,96.59 Z
           M 395.87,96.63
           C 395.87,96.63 391.92,120.15 391.92,120.15
             391.92,120.15 395.62,120.15 395.62,120.15
             395.62,120.15 398.19,104.86 398.19,104.86
             398.64,102.17 400.04,101.54 401.67,101.54
             401.67,101.54 403.25,101.54 403.25,101.54
             405.22,101.54 406.01,102.37 405.51,105.35
             405.51,105.35 403.02,120.19 403.02,120.19
             403.02,120.19 406.74,120.19 406.74,120.19
             406.74,120.19 409.40,104.32 409.40,104.32
             409.77,102.17 410.01,99.63 408.98,98.21
             408.04,96.94 406.48,96.63 405.09,96.63
             405.09,96.63 403.34,96.63 403.34,96.63
             401.82,96.63 400.53,96.90 399.23,98.65
             399.23,98.65 399.57,96.63 399.57,96.63
             399.57,96.63 395.87,96.63 395.87,96.63 Z
           M 427.45,97.90
           C 427.07,97.45 426.65,97.10 426.13,96.97
             425.18,96.74 424.21,96.63 423.23,96.63
             423.23,96.63 419.95,96.63 419.95,96.63
             416.82,96.63 414.46,97.28 413.59,102.50
             413.46,103.28 413.37,104.08 413.39,104.79
             413.41,105.79 413.71,106.43 414.19,107.01
             413.11,107.77 412.27,108.59 411.99,110.26
             411.85,111.04 411.95,111.68 412.12,112.35
             410.87,113.46 410.41,114.70 410.10,116.53
             409.76,118.55 409.82,120.44 411.09,121.35
             412.13,122.11 414.48,122.19 415.82,122.19
             415.82,122.19 419.90,122.19 419.90,122.19
             421.20,122.19 423.43,122.11 424.70,121.04
             426.08,119.93 426.66,117.66 426.98,115.79
             427.36,113.53 427.29,111.59 425.86,110.70
             424.73,110.01 421.93,110.12 420.54,110.12
             420.54,110.12 419.79,110.12 419.79,110.12
             418.93,110.12 418.04,110.12 417.20,110.01
             416.76,109.99 416.13,109.88 416.26,109.10
             416.33,108.68 416.70,108.35 416.96,108.10
             416.96,108.10 421.97,108.10 421.97,108.10
             423.21,108.10 424.62,107.97 425.85,106.90
             426.86,106.06 427.30,104.66 427.54,103.26
             427.54,103.26 427.56,103.12 427.56,103.12
             427.68,102.43 427.89,101.92 428.40,101.59
             428.94,101.23 429.57,101.30 430.10,101.30
             430.10,101.30 430.96,96.19 430.96,96.19
             430.96,96.19 429.76,96.19 429.76,96.19
             428.73,96.19 428.15,96.56 427.45,97.90 Z
           M 419.14,100.90
           C 419.14,100.90 422.59,100.90 422.59,100.90
             423.40,100.90 424.41,100.97 424.15,102.48
             423.91,103.90 422.83,104.10 422.07,104.10
             422.07,104.10 418.71,104.10 418.71,104.10
             417.88,104.10 416.97,103.94 417.22,102.43
             417.46,101.03 418.34,100.90 419.14,100.90 Z
           M 414.77,114.17
           C 417.14,114.15 419.49,114.21 421.86,114.28
             422.67,114.35 423.59,114.46 423.34,115.95
             423.26,116.46 422.98,116.97 422.60,117.19
             421.90,117.57 421.11,117.53 420.44,117.53
             420.44,117.53 415.95,117.53 415.95,117.53
             415.09,117.53 413.54,117.53 413.83,115.86
             413.95,115.13 414.33,114.61 414.77,114.17 Z" />
</svg>
